<svg xmlns="http://www.w3.org/2000/svg" width="2048" height="2048" viewBox="0 0 2048 2048" version="1.1">
	<path d="M 989.500 0.601 C 926.504 3.368, 877.156 9.185, 820.500 20.524 C 653.833 53.880, 495.602 130.275, 365 240.444 C 324.401 274.691, 274.691 324.401, 240.444 365 C 196.666 416.898, 156.916 475.156, 123.769 536 C 63.817 646.048, 24.561 767.682, 8.551 893 C 2.540 940.046, 0.612 971.862, 0.612 1024 C 0.612 1076.138, 2.540 1107.954, 8.551 1155 C 35.357 1364.822, 125.638 1558.716, 269.996 1716.500 C 286.131 1734.136, 324.433 1771.966, 341.500 1787.124 C 427.087 1863.135, 520.958 1922.862, 623.236 1966.383 C 811.959 2046.688, 1023.396 2068.332, 1225 2027.982 C 1404.699 1992.016, 1567.648 1910.593, 1706 1787.633 C 1723.406 1772.163, 1772.163 1723.406, 1787.633 1706 C 1921.356 1555.537, 2006.774 1373.929, 2036.443 1177 C 2041.852 1141.099, 2047 1084.274, 2047 1060.476 C 2047 1054.159, 2047.397 1050, 2048 1050 C 2048.643 1050, 2048.995 1040.260, 2048.985 1022.750 C 2048.975 1004.787, 2048.639 996.011, 2048 997 C 2047.341 998.020, 2047.026 995.069, 2047.015 987.774 C 2046.981 963.472, 2041.845 906.788, 2036.434 871 C 2010.801 701.434, 1944.540 544.211, 1840.673 406.500 C 1798.519 350.610, 1743.255 291.914, 1689.504 245.942 C 1519.747 100.755, 1312.065 16.670, 1087 2.004 C 1070.234 0.912, 1004.094 -0.040, 989.500 0.601 M 497 384.665 C 480.249 387.339, 470.425 390.250, 457.521 396.363 C 443.811 402.858, 433.706 410.105, 421.905 421.905 C 401.526 442.285, 390.074 464.480, 385.483 492.500 C 383.283 505.922, 383.256 1219.526, 385.455 1234 C 393.725 1288.460, 433.239 1329.952, 488 1341.680 C 496.160 1343.427, 517.608 1343.500, 1023.500 1343.500 C 1464.867 1343.500, 1551.719 1343.278, 1558 1342.133 C 1605.257 1333.518, 1645.295 1297.803, 1658.486 1252.495 C 1664.373 1232.275, 1664.044 1256.908, 1663.738 858.832 C 1663.475 517.546, 1663.344 493.039, 1661.740 486.500 C 1655.054 459.236, 1644.745 440.555, 1626.095 421.905 C 1607.577 403.387, 1588.247 392.664, 1562 386.348 C 1554.823 384.621, 1531.770 384.537, 1027 384.404 C 736.875 384.328, 498.375 384.445, 497 384.665 M 500.332 481.849 C 490.289 485.324, 483.154 493.265, 480.990 503.378 C 480.203 507.054, 479.979 609.739, 480.197 867 L 480.500 1225.500 483.290 1231.182 C 486.451 1237.619, 491.296 1242.316, 497.949 1245.394 L 502.500 1247.500 1024 1247.500 L 1545.500 1247.500 1550.051 1245.394 C 1556.704 1242.316, 1561.549 1237.619, 1564.710 1231.182 L 1567.500 1225.500 1567.500 864 L 1567.500 502.500 1564.710 496.818 C 1561.549 490.381, 1556.704 485.684, 1550.051 482.606 L 1545.500 480.500 1025.500 480.281 C 528.349 480.071, 505.273 480.140, 500.332 481.849 M 0.439 1024 C 0.439 1039.125, 0.578 1045.313, 0.748 1037.750 C 0.917 1030.188, 0.917 1017.813, 0.748 1010.250 C 0.578 1002.688, 0.439 1008.875, 0.439 1024 M 866.580 1418.243 C 862.537 1476.958, 839.548 1516.978, 802.162 1530.388 C 788.169 1535.408, 781.295 1536, 737.029 1536 C 699.786 1536, 695.663 1536.168, 688.609 1537.972 C 670.802 1542.526, 655.179 1554.899, 647.261 1570.717 C 634.424 1596.365, 638.959 1624.948, 659.043 1644.976 C 666.576 1652.488, 673.763 1657.021, 684.165 1660.821 L 691.500 1663.500 1023.500 1663.500 L 1355.500 1663.500 1362.500 1661.274 C 1382.212 1655.005, 1398.927 1638.429, 1405.127 1619 C 1408.088 1609.722, 1408.684 1596.174, 1406.553 1586.594 C 1401.277 1562.880, 1382.965 1544.001, 1359.391 1537.972 C 1352.337 1536.168, 1348.214 1536, 1310.971 1536 C 1266.725 1536, 1259.780 1535.403, 1245.926 1530.405 C 1223.078 1522.164, 1203.824 1502.318, 1194.026 1476.912 C 1187.355 1459.612, 1182.644 1437.670, 1181.344 1417.844 L 1180.699 1408 1023.993 1408 L 867.286 1408 866.580 1418.243" stroke="none" fill="black" fill-rule="evenodd"/>
</svg>